<?xml version="1.0" encoding="UTF-8" standalone="no"?>
<!DOCTYPE svg PUBLIC "-//W3C//DTD SVG 1.1//EN"
 "http://www.w3.org/Graphics/SVG/1.1/DTD/svg11.dtd">
<!-- Generated by graphviz version 2.30.1 (20201013.1554)
 -->
<!-- Title: 1 Pages: 1 -->
<svg width="133pt" height="133pt"
 viewBox="0.00 0.00 132.93 133.01" xmlns="http://www.w3.org/2000/svg" xmlns:xlink="http://www.w3.org/1999/xlink">
<g id="graph0" class="graph" transform="scale(1 1) rotate(0) translate(4 129.009)">
<title>1</title>
<polygon fill="white" stroke="white" points="-4,5 -4,-129.009 129.933,-129.009 129.933,5 -4,5"/>
<!-- n2 -->
<g id="node1" class="node"><title>n2</title>
<ellipse fill="none" stroke="black" cx="19.4983" cy="-56.1298" rx="19.4965" ry="19.4965"/>
<text text-anchor="middle" x="19.4983" y="-52.4298" font-family="Times,serif" font-size="14.00">n2</text>
</g>
<!-- n3 -->
<g id="node2" class="node"><title>n3</title>
<ellipse fill="none" stroke="black" cx="105.434" cy="-68.8508" rx="19.4965" ry="19.4965"/>
<text text-anchor="middle" x="105.434" y="-65.1508" font-family="Times,serif" font-size="14.00">n3</text>
</g>
<!-- n2&#45;&#45;n3 -->
<g id="edge1" class="edge"><title>n2&#45;&#45;n3</title>
<path fill="none" stroke="black" d="M38.9985,-59.0164C53.0625,-61.0982 71.9652,-63.8964 86.0114,-65.9756"/>
</g>
<!-- n1 -->
<g id="node3" class="node"><title>n1</title>
<ellipse fill="none" stroke="black" cx="68.7896" cy="-19.4983" rx="19.4965" ry="19.4965"/>
<text text-anchor="middle" x="68.7896" y="-15.7983" font-family="Times,serif" font-size="14.00">n1</text>
</g>
<!-- n1&#45;&#45;n3 -->
<g id="edge2" class="edge"><title>n1&#45;&#45;n3</title>
<path fill="none" stroke="black" d="M80.586,-35.3854C84.7706,-41.021 89.4775,-47.3602 93.6602,-52.9934"/>
</g>
<!-- n1&#45;&#45;n2 -->
<g id="edge3" class="edge"><title>n1&#45;&#45;n2</title>
<path fill="none" stroke="black" d="M52.9222,-31.2904C47.2935,-35.4734 40.9622,-40.1786 35.336,-44.3598"/>
</g>
<!-- n0 -->
<g id="node4" class="node"><title>n0</title>
<ellipse fill="none" stroke="black" cx="56.0533" cy="-105.511" rx="19.4965" ry="19.4965"/>
<text text-anchor="middle" x="56.0533" y="-101.811" font-family="Times,serif" font-size="14.00">n0</text>
</g>
<!-- n0&#45;&#45;n3 -->
<g id="edge4" class="edge"><title>n0&#45;&#45;n3</title>
<path fill="none" stroke="black" d="M71.9497,-93.7097C77.5886,-89.5234 83.9315,-84.8145 89.5679,-80.63"/>
</g>
<!-- n0&#45;&#45;n2 -->
<g id="edge5" class="edge"><title>n0&#45;&#45;n2</title>
<path fill="none" stroke="black" d="M44.2859,-89.6147C40.1116,-83.9758 35.4162,-77.6329 31.2437,-71.9964"/>
</g>
<!-- n0&#45;&#45;n1 -->
<g id="edge6" class="edge"><title>n0&#45;&#45;n1</title>
<path fill="none" stroke="black" d="M58.9434,-85.9934C61.0278,-71.9169 63.8293,-52.9974 65.911,-38.9387"/>
</g>
</g>
</svg>
