<?xml version="1.0" standalone="yes"?>
<!-- SVG graphic -->
<svg xmlns='http://www.w3.org/2000/svg' xmlns:xlink='http://www.w3.org/1999/xlink'
 version="1.1">
<rect x="0" y="0" width="6" height="200" stroke="black" stroke-width="1" fill="blue" tooltip="enable"><title>(0,675)</title></rect><rect x="6" y="81.7778" width="6" height="118.222" stroke="black" stroke-width="1" fill="blue" tooltip="enable"><title>(0.031861,399)</title></rect><rect x="12" y="117.333" width="6" height="82.6667" stroke="black" stroke-width="1" fill="blue" tooltip="enable"><title>(0.063722,279)</title></rect><rect x="18" y="130.667" width="6" height="69.3333" stroke="black" stroke-width="1" fill="blue" tooltip="enable"><title>(0.0955829,234)</title></rect><rect x="24" y="137.778" width="6" height="62.2222" stroke="black" stroke-width="1" fill="blue" tooltip="enable"><title>(0.127444,210)</title></rect><rect x="30" y="151.407" width="6" height="48.5926" stroke="black" stroke-width="1" fill="blue" tooltip="enable"><title>(0.159305,164)</title></rect><rect x="36" y="160" width="6" height="40" stroke="black" stroke-width="1" fill="blue" tooltip="enable"><title>(0.191166,135)</title></rect><rect x="42" y="163.259" width="6" height="36.7407" stroke="black" stroke-width="1" fill="blue" tooltip="enable"><title>(0.223027,124)</title></rect><rect x="48" y="174.222" width="6" height="25.7778" stroke="black" stroke-width="1" fill="blue" tooltip="enable"><title>(0.254888,87)</title></rect><rect x="54" y="175.111" width="6" height="24.8889" stroke="black" stroke-width="1" fill="blue" tooltip="enable"><title>(0.286749,84)</title></rect><rect x="60" y="178.963" width="6" height="21.037" stroke="black" stroke-width="1" fill="blue" tooltip="enable"><title>(0.31861,71)</title></rect><rect x="66" y="176.889" width="6" height="23.1111" stroke="black" stroke-width="1" fill="blue" tooltip="enable"><title>(0.350471,78)</title></rect><rect x="72" y="179.852" width="6" height="20.1481" stroke="black" stroke-width="1" fill="blue" tooltip="enable"><title>(0.382332,68)</title></rect><rect x="78" y="182.519" width="6" height="17.4815" stroke="black" stroke-width="1" fill="blue" tooltip="enable"><title>(0.414193,59)</title></rect><rect x="84" y="183.407" width="6" height="16.5926" stroke="black" stroke-width="1" fill="blue" tooltip="enable"><title>(0.446054,56)</title></rect><rect x="90" y="186.667" width="6" height="13.3333" stroke="black" stroke-width="1" fill="blue" tooltip="enable"><title>(0.477915,45)</title></rect><rect x="96" y="189.926" width="6" height="10.0741" stroke="black" stroke-width="1" fill="blue" tooltip="enable"><title>(0.509776,34)</title></rect><rect x="102" y="184.593" width="6" height="15.4074" stroke="black" stroke-width="1" fill="blue" tooltip="enable"><title>(0.541637,52)</title></rect><rect x="108" y="186.37" width="6" height="13.6296" stroke="black" stroke-width="1" fill="blue" tooltip="enable"><title>(0.573498,46)</title></rect><rect x="114" y="187.556" width="6" height="12.4444" stroke="black" stroke-width="1" fill="blue" tooltip="enable"><title>(0.605359,42)</title></rect><rect x="120" y="190.519" width="6" height="9.48148" stroke="black" stroke-width="1" fill="blue" tooltip="enable"><title>(0.63722,32)</title></rect><rect x="126" y="188.444" width="6" height="11.5556" stroke="black" stroke-width="1" fill="blue" tooltip="enable"><title>(0.669081,39)</title></rect><rect x="132" y="193.778" width="6" height="6.22222" stroke="black" stroke-width="1" fill="blue" tooltip="enable"><title>(0.700942,21)</title></rect><rect x="138" y="189.63" width="6" height="10.3704" stroke="black" stroke-width="1" fill="blue" tooltip="enable"><title>(0.732803,35)</title></rect><rect x="144" y="194.37" width="6" height="5.62963" stroke="black" stroke-width="1" fill="blue" tooltip="enable"><title>(0.764664,19)</title></rect><rect x="150" y="188.741" width="6" height="11.2593" stroke="black" stroke-width="1" fill="blue" tooltip="enable"><title>(0.796525,38)</title></rect><rect x="156" y="193.185" width="6" height="6.81482" stroke="black" stroke-width="1" fill="blue" tooltip="enable"><title>(0.828386,23)</title></rect><rect x="162" y="193.481" width="6" height="6.51852" stroke="black" stroke-width="1" fill="blue" tooltip="enable"><title>(0.860247,22)</title></rect><rect x="168" y="192.889" width="6" height="7.11111" stroke="black" stroke-width="1" fill="blue" tooltip="enable"><title>(0.892108,24)</title></rect><rect x="174" y="196.741" width="6" height="3.25926" stroke="black" stroke-width="1" fill="blue" tooltip="enable"><title>(0.923968,11)</title></rect><rect x="180" y="195.259" width="6" height="4.74074" stroke="black" stroke-width="1" fill="blue" tooltip="enable"><title>(0.95583,16)</title></rect><rect x="186" y="192.593" width="6" height="7.40741" stroke="black" stroke-width="1" fill="blue" tooltip="enable"><title>(0.987691,25)</title></rect><rect x="192" y="196.444" width="6" height="3.55556" stroke="black" stroke-width="1" fill="blue" tooltip="enable"><title>(1.01955,12)</title></rect><rect x="198" y="197.63" width="6" height="2.37037" stroke="black" stroke-width="1" fill="blue" tooltip="enable"><title>(1.05141,8)</title></rect><rect x="204" y="197.333" width="6" height="2.66667" stroke="black" stroke-width="1" fill="blue" tooltip="enable"><title>(1.08327,9)</title></rect><rect x="210" y="197.63" width="6" height="2.37037" stroke="black" stroke-width="1" fill="blue" tooltip="enable"><title>(1.11513,8)</title></rect><rect x="216" y="196.444" width="6" height="3.55556" stroke="black" stroke-width="1" fill="blue" tooltip="enable"><title>(1.147,12)</title></rect><rect x="222" y="197.926" width="6" height="2.07407" stroke="black" stroke-width="1" fill="blue" tooltip="enable"><title>(1.17886,7)</title></rect><rect x="228" y="195.852" width="6" height="4.14815" stroke="black" stroke-width="1" fill="blue" tooltip="enable"><title>(1.21072,14)</title></rect><rect x="234" y="195.556" width="6" height="4.44444" stroke="black" stroke-width="1" fill="blue" tooltip="enable"><title>(1.24258,15)</title></rect><rect x="240" y="194.963" width="6" height="5.03704" stroke="black" stroke-width="1" fill="blue" tooltip="enable"><title>(1.27444,17)</title></rect><rect x="246" y="195.852" width="6" height="4.14815" stroke="black" stroke-width="1" fill="blue" tooltip="enable"><title>(1.3063,14)</title></rect><rect x="252" y="197.63" width="6" height="2.37037" stroke="black" stroke-width="1" fill="blue" tooltip="enable"><title>(1.33816,8)</title></rect><rect x="258" y="195.556" width="6" height="4.44444" stroke="black" stroke-width="1" fill="blue" tooltip="enable"><title>(1.37002,15)</title></rect><rect x="264" y="197.926" width="6" height="2.07407" stroke="black" stroke-width="1" fill="blue" tooltip="enable"><title>(1.40188,7)</title></rect><rect x="270" y="197.037" width="6" height="2.96296" stroke="black" stroke-width="1" fill="blue" tooltip="enable"><title>(1.43374,10)</title></rect><rect x="276" y="197.333" width="6" height="2.66667" stroke="black" stroke-width="1" fill="blue" tooltip="enable"><title>(1.46561,9)</title></rect><rect x="282" y="197.926" width="6" height="2.07407" stroke="black" stroke-width="1" fill="blue" tooltip="enable"><title>(1.49747,7)</title></rect><rect x="288" y="197.926" width="6" height="2.07407" stroke="black" stroke-width="1" fill="blue" tooltip="enable"><title>(1.52933,7)</title></rect><rect x="294" y="197.63" width="6" height="2.37037" stroke="black" stroke-width="1" fill="blue" tooltip="enable"><title>(1.56119,8)</title></rect><rect x="300" y="197.333" width="6" height="2.66667" stroke="black" stroke-width="1" fill="blue" tooltip="enable"><title>(1.59305,9)</title></rect><rect x="306" y="197.926" width="6" height="2.07407" stroke="black" stroke-width="1" fill="blue" tooltip="enable"><title>(1.62491,7)</title></rect><rect x="312" y="198.815" width="6" height="1.18519" stroke="black" stroke-width="1" fill="blue" tooltip="enable"><title>(1.65677,4)</title></rect><rect x="318" y="199.111" width="6" height="0.888889" stroke="black" stroke-width="1" fill="blue" tooltip="enable"><title>(1.68863,3)</title></rect><rect x="324" y="199.407" width="6" height="0.592593" stroke="black" stroke-width="1" fill="blue" tooltip="enable"><title>(1.72049,2)</title></rect><rect x="330" y="199.111" width="6" height="0.888889" stroke="black" stroke-width="1" fill="blue" tooltip="enable"><title>(1.75235,3)</title></rect><rect x="336" y="198.815" width="6" height="1.18519" stroke="black" stroke-width="1" fill="blue" tooltip="enable"><title>(1.78422,4)</title></rect><rect x="342" y="199.704" width="6" height="0.296296" stroke="black" stroke-width="1" fill="blue" tooltip="enable"><title>(1.81608,1)</title></rect><rect x="348" y="199.111" width="6" height="0.888889" stroke="black" stroke-width="1" fill="blue" tooltip="enable"><title>(1.84794,3)</title></rect><rect x="354" y="199.704" width="6" height="0.296296" stroke="black" stroke-width="1" fill="blue" tooltip="enable"><title>(1.8798,1)</title></rect><rect x="360" y="199.704" width="6" height="0.296296" stroke="black" stroke-width="1" fill="blue" tooltip="enable"><title>(1.91166,1)</title></rect><rect x="366" y="199.704" width="6" height="0.296296" stroke="black" stroke-width="1" fill="blue" tooltip="enable"><title>(1.94352,1)</title></rect><rect x="372" y="199.407" width="6" height="0.592593" stroke="black" stroke-width="1" fill="blue" tooltip="enable"><title>(1.97538,2)</title></rect><rect x="378" y="199.704" width="6" height="0.296296" stroke="black" stroke-width="1" fill="blue" tooltip="enable"><title>(2.00724,1)</title></rect><rect x="384" y="200" width="6" height="0" stroke="black" stroke-width="1" fill="blue" tooltip="enable"><title>(2.0391,0)</title></rect><rect x="390" y="200" width="6" height="0" stroke="black" stroke-width="1" fill="blue" tooltip="enable"><title>(2.07096,0)</title></rect><rect x="396" y="199.111" width="6" height="0.888889" stroke="black" stroke-width="1" fill="blue" tooltip="enable"><title>(2.10282,3)</title></rect><rect x="402" y="200" width="6" height="0" stroke="black" stroke-width="1" fill="blue" tooltip="enable"><title>(2.13469,0)</title></rect><rect x="408" y="200" width="6" height="0" stroke="black" stroke-width="1" fill="blue" tooltip="enable"><title>(2.16655,0)</title></rect><rect x="414" y="199.407" width="6" height="0.592593" stroke="black" stroke-width="1" fill="blue" tooltip="enable"><title>(2.19841,2)</title></rect><rect x="420" y="200" width="6" height="0" stroke="black" stroke-width="1" fill="blue" tooltip="enable"><title>(2.23027,0)</title></rect><rect x="426" y="199.704" width="6" height="0.296296" stroke="black" stroke-width="1" fill="blue" tooltip="enable"><title>(2.26213,1)</title></rect><rect x="432" y="200" width="6" height="0" stroke="black" stroke-width="1" fill="blue" tooltip="enable"><title>(2.29399,0)</title></rect><rect x="438" y="200" width="6" height="0" stroke="black" stroke-width="1" fill="blue" tooltip="enable"><title>(2.32585,0)</title></rect><rect x="444" y="199.407" width="6" height="0.592593" stroke="black" stroke-width="1" fill="blue" tooltip="enable"><title>(2.35771,2)</title></rect><rect x="450" y="200" width="6" height="0" stroke="black" stroke-width="1" fill="blue" tooltip="enable"><title>(2.38957,0)</title></rect><rect x="456" y="199.704" width="6" height="0.296296" stroke="black" stroke-width="1" fill="blue" tooltip="enable"><title>(2.42143,1)</title></rect><rect x="462" y="199.704" width="6" height="0.296296" stroke="black" stroke-width="1" fill="blue" tooltip="enable"><title>(2.4533,1)</title></rect><rect x="468" y="200" width="6" height="0" stroke="black" stroke-width="1" fill="blue" tooltip="enable"><title>(2.48516,0)</title></rect><rect x="474" y="200" width="6" height="0" stroke="black" stroke-width="1" fill="blue" tooltip="enable"><title>(2.51702,0)</title></rect><rect x="480" y="200" width="6" height="0" stroke="black" stroke-width="1" fill="blue" tooltip="enable"><title>(2.54888,0)</title></rect><rect x="486" y="200" width="6" height="0" stroke="black" stroke-width="1" fill="blue" tooltip="enable"><title>(2.58074,0)</title></rect><rect x="492" y="200" width="6" height="0" stroke="black" stroke-width="1" fill="blue" tooltip="enable"><title>(2.6126,0)</title></rect><rect x="498" y="199.704" width="6" height="0.296296" stroke="black" stroke-width="1" fill="blue" tooltip="enable"><title>(2.64446,1)</title></rect><rect x="504" y="199.704" width="6" height="0.296296" stroke="black" stroke-width="1" fill="blue" tooltip="enable"><title>(2.67632,1)</title></rect><rect x="510" y="200" width="6" height="0" stroke="black" stroke-width="1" fill="blue" tooltip="enable"><title>(2.70818,0)</title></rect><rect x="516" y="200" width="6" height="0" stroke="black" stroke-width="1" fill="blue" tooltip="enable"><title>(2.74004,0)</title></rect><rect x="522" y="200" width="6" height="0" stroke="black" stroke-width="1" fill="blue" tooltip="enable"><title>(2.77191,0)</title></rect><rect x="528" y="199.704" width="6" height="0.296296" stroke="black" stroke-width="1" fill="blue" tooltip="enable"><title>(2.80377,1)</title></rect><rect x="534" y="200" width="6" height="0" stroke="black" stroke-width="1" fill="blue" tooltip="enable"><title>(2.83563,0)</title></rect><rect x="540" y="200" width="6" height="0" stroke="black" stroke-width="1" fill="blue" tooltip="enable"><title>(2.86749,0)</title></rect><rect x="546" y="200" width="6" height="0" stroke="black" stroke-width="1" fill="blue" tooltip="enable"><title>(2.89935,0)</title></rect><rect x="552" y="200" width="6" height="0" stroke="black" stroke-width="1" fill="blue" tooltip="enable"><title>(2.93121,0)</title></rect><rect x="558" y="200" width="6" height="0" stroke="black" stroke-width="1" fill="blue" tooltip="enable"><title>(2.96307,0)</title></rect><rect x="564" y="200" width="6" height="0" stroke="black" stroke-width="1" fill="blue" tooltip="enable"><title>(2.99493,0)</title></rect><rect x="570" y="200" width="6" height="0" stroke="black" stroke-width="1" fill="blue" tooltip="enable"><title>(3.02679,0)</title></rect><rect x="576" y="200" width="6" height="0" stroke="black" stroke-width="1" fill="blue" tooltip="enable"><title>(3.05865,0)</title></rect><rect x="582" y="200" width="6" height="0" stroke="black" stroke-width="1" fill="blue" tooltip="enable"><title>(3.09052,0)</title></rect><rect x="588" y="200" width="6" height="0" stroke="black" stroke-width="1" fill="blue" tooltip="enable"><title>(3.12238,0)</title></rect><rect x="594" y="199.111" width="6" height="0.888889" stroke="black" stroke-width="1" fill="blue" tooltip="enable"><title>(3.15424,3)</title></rect><text x="30" y="240" font-size="20" fill="black">0</text>
<text x="600" y="240" font-size="20" fill="black">3.1861</text>
<polyline points="0,220,600,220" stroke="black" stroke-width="1" fill="none"/>
<text x="720" y="20" font-size="20" fill="black">675</text>
<text x="720" y="200" font-size="20" fill="black">0</text>
<polyline points="660,0,660,200" stroke="black" stroke-width="1" fill="none"/>
</svg>